M48
; DRILL file {KiCad 9.0.0} date 2025-11-08T16:49:10+0300
; FORMAT={-:-/ absolute / metric / decimal}
; #@! TF.CreationDate,2025-11-08T16:49:10+03:00
; #@! TF.GenerationSoftware,Kicad,Pcbnew,9.0.0
; #@! TF.FileFunction,Plated,1,4,PTH
FMAT,2
METRIC
; #@! TA.AperFunction,Plated,PTH,ViaDrill
T1C0.250
; #@! TA.AperFunction,Plated,PTH,ComponentDrill
T2C0.250
; #@! TA.AperFunction,Plated,PTH,ViaDrill
T3C0.254
; #@! TA.AperFunction,Plated,PTH,ViaDrill
T4C0.300
; #@! TA.AperFunction,Plated,PTH,ComponentDrill
T5C0.600
; #@! TA.AperFunction,Plated,PTH,ComponentDrill
T6C1.000
; #@! TA.AperFunction,Plated,PTH,ComponentDrill
T7C1.600
%
G90
G05
T1
X2.464Y17.789
X3.353Y40.903
X3.353Y37.093
X3.48Y14.868
X3.48Y11.947
X4.496Y13.852
X5.004Y18.805
X5.121Y10.239
X6.909Y42.046
X7.036Y35.823
X7.62Y58.166
X7.62Y56.642
X7.62Y53.34
X7.62Y51.816
X8.128Y54.864
X8.179Y43.824
X8.306Y16.9
X8.814Y9.534
X8.89Y53.34
X8.89Y51.816
X9.144Y58.42
X9.144Y56.896
X9.703Y43.951
X9.83Y16.9
X10.211Y49.92
X11.227Y43.951
X11.608Y16.773
X12.37Y3.057
X12.624Y17.154
X12.624Y9.407
X12.954Y58.42
X12.954Y57.15
X12.954Y52.07
X13.462Y53.594
X13.513Y46.999
X14.224Y55.372
X14.478Y52.07
X14.529Y0.644
X14.732Y58.42
X14.732Y56.896
X14.732Y54.102
X15.291Y4.327
X15.545Y9.407
X15.774Y0.644
X16.002Y44.958
X16.307Y54.873
X18.085Y3.057
X18.466Y47.761
X20.32Y58.42
X20.32Y56.642
X20.32Y53.086
X20.32Y51.562
X20.828Y54.864
X21.844Y56.642
X21.844Y53.086
X21.844Y51.562
X22.022Y17.154
X22.022Y9.534
X22.098Y58.42
X24.181Y3.057
X24.384Y46.228
X24.562Y49.92
X25.451Y2.93
X25.654Y58.42
X25.654Y56.896
X25.654Y52.832
X25.654Y51.562
X25.654Y46.237
X25.705Y18.17
X26.416Y54.356
X26.975Y18.17
X27.178Y55.88
X27.178Y52.832
X27.178Y51.562
X27.432Y57.658
X28.245Y1.406
X28.372Y3.184
X28.702Y32.766
X31.344Y37.626
X31.674Y36.068
X32.69Y3.057
X32.766Y56.896
X32.766Y54.864
X33.02Y58.42
X33.02Y52.832
X33.02Y51.562
X34.036Y53.848
X34.544Y58.42
X34.544Y56.896
X34.544Y51.562
X35.433Y49.412
X35.484Y50.047
X35.484Y43.062
X35.484Y41.919
X36.246Y42.554
X36.449Y33.02
X36.449Y31.623
X36.627Y0.644
X37.643Y4.073
X38.354Y58.42
X38.354Y56.896
X38.354Y52.832
X38.354Y51.562
X39.116Y53.848
X39.167Y46.364
X39.929Y25.79
X40.132Y58.42
X40.132Y56.642
X40.132Y54.864
X40.132Y51.308
X40.152Y52.596
X41.58Y3.057
X42.469Y25.663
X43.183Y3.089
X43.993Y47.126
X44.45Y41.402
X44.704Y39.878
X45.644Y0.644
X45.72Y58.42
X45.72Y56.896
X45.72Y53.34
X45.72Y51.562
X45.974Y54.864
X46.99Y51.562
X47.244Y56.642
X47.244Y52.832
X47.498Y58.42
X48.311Y17.154
X48.565Y49.031
X48.565Y3.057
X48.819Y16.392
X49.454Y17.154
X51.054Y58.42
X51.054Y56.896
X51.054Y52.07
X51.359Y46.11
X51.562Y53.594
X51.816Y55.372
X52.324Y51.816
X52.502Y3.057
X52.629Y46.11
X52.832Y58.42
X52.832Y54.102
X53.83Y3.145
X53.899Y46.11
X54.026Y54.238
X56.439Y0.771
X57.836Y42.926
X57.963Y35.823
X58.42Y58.42
X58.42Y54.102
X58.42Y52.578
X58.437Y56.058
X58.852Y49.031
X58.852Y35.814
X58.979Y2.93
X59.944Y58.42
X59.944Y52.578
X60.249Y49.031
X60.554Y1.254
X60.884Y50.428
X61.011Y57.921
X62.281Y1.152
X63.17Y1.406
X63.424Y33.283
X63.5Y42.672
X63.754Y51.562
X63.78Y57.565
X64.262Y56.134
X64.465Y52.282
X64.516Y54.61
X64.948Y57.286
X64.948Y1.152
X65.075Y32.648
X65.456Y55.635
X65.634Y1.279
X65.71Y32.902
X66.396Y51.918
X66.472Y37.474
X67.234Y32.902
X67.31Y41.148
X67.602Y47.361
X67.615Y1.279
X67.818Y44.958
X68.101Y41.233
X69.977Y34.671
X70.358Y45.212
X70.358Y42.672
X71.12Y58.42
X71.12Y56.388
X71.137Y51.74
X71.264Y53.391
X71.349Y54.898
X71.552Y35.188
X71.882Y52.324
X72.39Y56.388
X72.8Y50.119
X72.898Y58.42
X74.516Y46.745
X75.311Y42.799
X76.454Y58.674
X76.454Y57.15
X76.454Y53.086
X76.454Y51.816
X76.962Y54.102
X77.216Y55.372
X77.394Y31.632
X77.978Y51.816
X78.232Y58.674
X78.232Y57.15
X78.232Y55.372
X78.232Y53.34
X80.264Y58.674
X80.264Y46.99
X80.823Y1.279
X81.534Y48.006
X83.058Y48.006
X83.82Y38.1
X84.074Y45.212
X84.582Y48.006
X85.852Y56.134
X86.005Y50.199
X86.36Y58.928
X86.36Y57.912
X87.376Y37.211
X89.154Y58.42
X89.154Y57.404
X89.154Y53.086
X89.154Y52.07
X89.154Y48.514
X89.84Y33.029
X90.06Y55.169
X90.094Y0.771
X90.678Y53.086
X90.678Y52.07
X90.729Y50.682
X90.932Y58.42
X90.932Y57.15
X90.932Y55.118
X92.075Y37.11
X92.228Y44.434
X94.234Y58.928
X94.234Y57.658
X94.234Y56.388
X94.234Y55.372
X96.52Y52.832
X96.52Y37.211
X96.664Y51.562
X97.79Y53.848
X98.044Y35.052
X98.298Y58.674
X98.298Y56.896
X98.298Y53.086
X98.298Y52.07
X98.552Y34.036
X98.552Y33.02
X99.365Y50.428
X99.568Y34.036
X99.568Y33.02
X99.822Y8.128
X100.33Y42.672
X100.33Y34.036
X100.33Y33.02
X101.092Y46.228
X101.092Y8.128
X101.346Y48.26
X101.854Y52.832
X101.854Y51.562
X103.048Y8.264
X103.124Y53.594
X103.302Y32.775
X103.327Y51.85
X103.378Y58.42
X103.378Y56.896
X103.378Y55.118
X104.064Y35.95
X104.445Y47.634
X105.918Y41.148
X106.934Y41.148
X107.696Y51.054
X107.696Y49.53
X107.95Y48.006
X107.95Y41.656
X107.95Y16.256
X108.204Y1.524
X108.585Y53.975
X109.728Y1.524
X112.065Y46.11
X112.065Y39.76
X112.065Y21.345
X112.192Y13.725
X114.554Y45.72
X114.554Y38.354
X114.554Y34.544
X114.554Y33.02
X114.554Y25.654
X114.554Y21.844
X114.554Y20.32
X114.554Y12.954
X114.554Y9.144
X114.554Y7.62
X114.808Y52.832
X114.808Y51.308
X114.808Y47.244
X114.808Y39.878
X114.808Y27.178
X114.808Y14.478
X115.062Y30.48
X115.748Y43.57
X116.078Y51.054
X116.078Y38.608
X116.078Y33.02
X116.078Y25.908
X116.078Y20.32
X116.078Y13.208
X116.078Y7.62
X116.332Y52.832
X116.332Y45.72
X116.332Y40.132
X116.332Y34.544
X116.332Y27.432
X116.332Y21.844
X116.332Y14.732
X116.332Y9.144
X116.84Y46.99
X117.856Y52.324
X118.11Y45.974
X118.11Y39.624
X118.11Y33.274
X118.11Y26.924
X118.11Y20.574
X118.11Y14.224
X118.11Y7.874
X119.126Y42.164
X119.38Y16.51
X119.634Y52.578
X119.888Y51.054
X119.888Y45.72
X119.888Y39.878
X119.888Y33.02
X119.888Y27.178
X119.888Y20.32
X119.888Y14.478
X119.888Y7.62
X120.142Y47.244
X120.142Y38.354
X120.142Y34.544
X120.142Y25.654
X120.142Y21.844
X120.142Y12.954
X120.142Y9.144
X121.412Y51.054
X121.666Y52.578
X121.666Y47.244
X121.666Y45.72
X121.666Y39.878
X121.666Y38.354
X121.666Y34.544
X121.666Y33.02
X121.666Y27.178
X121.666Y25.654
X121.666Y21.844
X121.666Y20.32
X121.666Y14.478
X121.666Y12.954
X121.666Y9.144
X121.666Y7.62
T2
X82.208Y20.916
X82.208Y20.066
X82.208Y19.216
X83.058Y20.916
X83.058Y20.066
X83.058Y19.216
X83.908Y20.916
X83.908Y20.066
X83.908Y19.216
T3
X16.764Y46.228
X17.272Y46.736
X39.28Y23.1
X42.291Y46.228
X43.053Y45.974
X46.66Y34.939
X48.692Y32.648
X58.95Y35.191
X62.357Y2.921
X63.227Y2.921
X63.754Y13.081
X64.389Y13.081
X65.024Y13.081
X65.596Y3.111
X70.951Y35.856
X72.517Y31.623
X72.695Y2.168
X72.871Y31.127
X72.986Y28.245
X73.038Y28.852
X73.328Y29.488
X73.635Y27.178
X73.768Y30.716
X73.914Y31.307
X74.041Y18.796
X74.346Y5.88
X74.854Y2.743
X75.26Y17.601
X75.919Y22.39
X76.073Y18.554
X76.079Y20.072
X76.175Y20.815
X76.482Y24.323
X76.524Y22.469
X76.72Y21.285
X76.935Y18.39
X76.962Y17.78
X76.972Y19.008
X77.205Y24.323
X78.637Y14.641
X78.967Y25.298
X78.994Y17.145
X79.658Y24.326
X81.153Y14.3
X81.966Y32.409
X81.973Y4.503
X82.401Y13.537
X82.58Y14.119
X84.201Y35.687
X85.315Y13.767
X85.506Y32.004
X86.016Y14.007
X86.868Y30.556
X87.349Y14.986
X87.486Y32.622
X87.789Y25.168
X87.999Y31.013
X88.011Y31.677
X88.721Y13.549
X88.9Y30.48
X89.11Y14.378
X89.708Y23.262
X89.789Y22.609
X90.549Y15.012
X91.041Y14.652
X91.06Y3.302
X91.307Y10.719
X91.904Y22.447
X91.948Y21.082
X92.812Y11.074
X93.091Y11.684
X93.657Y12.123
X94.234Y11.303
X94.468Y13.415
X94.538Y14.021
X94.564Y15.025
X94.615Y12.446
X95.25Y14.986
X100.965Y17.653
X101.346Y17.145
X110.955Y43.026
X110.998Y42.418
T4
X4.877Y40.776
X4.877Y37.22
X5.893Y30.362
X6.274Y29.092
X7.036Y31.124
X7.036Y28.711
X7.29Y9.788
X7.544Y13.852
X7.798Y30.362
X7.798Y29.346
X13.843Y46.228
X15.672Y51.571
X15.875Y28.829
X15.875Y27.559
X17.272Y28.829
X17.272Y27.559
X17.831Y51.698
X19.482Y28.33
X21.006Y27.568
X21.844Y26.797
X22.022Y14.614
X22.022Y13.344
X22.156Y16.018
X22.281Y18.415
X22.606Y26.797
X25.578Y14.868
X26.848Y14.868
X27.864Y38.49
X27.864Y28.838
X27.864Y27.314
X29.388Y31.378
X29.388Y27.568
X29.896Y35.976
X29.972Y46.482
X29.972Y45.212
X29.972Y34.036
X29.972Y32.766
X30.404Y42.3
X30.404Y40.903
X30.424Y30.606
X30.48Y43.434
X30.48Y39.624
X30.988Y34.036
X30.988Y32.766
X31.242Y46.482
X31.496Y45.466
X32.258Y34.036
X32.258Y32.766
X32.499Y30.362
X32.944Y44.332
X33.198Y46.618
X33.528Y34.036
X33.528Y32.766
X33.96Y38.998
X33.96Y35.188
X33.96Y31.378
X34.468Y44.332
X34.976Y46.618
X35.484Y35.188
X35.484Y27.568
X35.992Y38.998
X37.712Y39.0
X37.77Y42.935
X37.897Y41.919
X38.405Y42.427
X38.938Y1.355
X39.167Y38.998
X39.548Y16.392
X39.548Y15.376
X39.802Y45.602
X39.802Y44.586
X40.564Y16.392
X40.564Y15.376
X40.691Y38.998
X41.072Y44.84
X41.199Y50.936
X41.326Y46.745
X43.358Y51.19
X43.942Y35.56
X44.196Y36.83
X44.628Y54.238
X45.644Y25.028
X45.771Y23.885
X46.025Y27.441
X46.228Y31.75
X46.406Y26.679
X46.66Y36.576
X46.66Y35.814
X47.041Y42.427
X47.041Y25.028
X47.168Y45.094
X47.168Y43.697
X47.244Y23.885
X47.295Y33.029
X47.422Y34.868
X47.676Y36.576
X47.676Y35.814
X47.828Y27.94
X47.854Y30.438
X47.854Y29.219
X48.184Y35.061
X48.672Y1.406
X48.692Y37.601
X48.692Y36.576
X48.692Y35.814
X49.034Y42.672
X49.073Y44.967
X49.073Y43.824
X49.073Y41.411
X49.073Y40.268
X49.2Y46.872
X50.128Y57.794
X54.788Y49.412
X55.169Y36.458
X55.423Y33.791
X55.55Y34.934
X55.55Y32.521
X55.55Y29.981
X55.677Y31.251
X56.007Y40.386
X57.476Y40.386
X57.836Y28.33
X57.836Y27.441
X58.832Y1.406
X58.928Y36.703
X59.741Y34.299
X59.741Y33.537
X59.868Y44.332
X60.376Y45.348
X60.503Y34.299
X60.503Y33.537
X60.63Y48.269
X60.974Y58.622
X61.138Y52.968
X61.265Y34.299
X61.265Y33.537
X62.535Y18.297
X62.535Y17.408
X64.567Y26.933
X64.77Y36.703
X64.832Y38.934
X65.456Y25.917
X66.548Y55.88
X66.726Y13.666
X66.929Y59.115
X67.488Y18.729
X67.59Y49.869
X67.691Y39.624
X68.299Y5.809
X68.377Y57.54
X68.504Y14.487
X68.885Y16.392
X69.49Y39.624
X71.044Y45.856
X71.628Y36.83
X72.187Y34.299
X72.187Y33.41
X72.415Y14.677
X72.568Y43.062
X73.076Y34.299
X73.076Y33.41
X73.838Y34.299
X73.838Y33.41
X73.965Y14.614
X74.6Y44.586
X75.692Y35.052
X75.997Y48.269
X76.378Y12.582
X77.445Y4.714
X77.648Y38.871
X78.74Y37.211
X78.842Y34.95
X78.994Y20.264
X79.045Y17.882
X79.147Y22.225
X79.832Y56.473
X79.934Y22.742
X80.061Y34.95
X80.061Y41.284
X80.696Y17.408
X80.798Y16.012
X81.001Y27.787
X81.036Y23.755
X81.052Y29.244
X81.367Y2.585
X81.585Y41.284
X81.661Y30.138
X81.712Y8.518
X82.017Y27.787
X82.042Y36.576
X82.22Y22.742
X82.347Y21.98
X82.347Y17.281
X82.472Y16.138
X82.525Y30.138
X82.855Y26.171
X83.084Y27.787
X83.236Y38.871
X83.541Y30.108
X83.617Y42.173
X83.617Y40.776
X83.658Y16.138
X84.051Y24.231
X84.76Y8.518
X85.268Y34.299
X85.268Y33.537
X85.436Y17.117
X85.522Y49.666
X85.522Y43.062
X85.624Y19.237
X85.674Y16.404
X86.03Y34.299
X86.03Y33.537
X86.03Y24.12
X86.378Y29.483
X86.423Y23.336
X86.589Y20.922
X86.792Y34.299
X86.792Y33.537
X86.792Y22.615
X86.792Y19.313
X86.919Y5.851
X86.944Y17.691
X87.681Y44.586
X87.884Y24.384
X88.519Y15.986
X89.027Y4.51
X89.027Y35.433
X89.84Y26.552
X91.11Y38.871
X91.364Y41.157
X92.075Y4.073
X92.116Y6.827
X92.177Y49.768
X92.431Y26.501
X92.634Y1.406
X93.015Y41.284
X94.412Y41.284
X96.19Y45.348
X96.825Y41.665
X97.232Y35.406
X97.46Y5.978
X97.689Y43.116
X97.917Y36.322
X101.456Y3.438
X102.024Y5.539
X103.124Y50.038
X103.302Y38.49
X104.064Y7.248
X104.318Y59.318
X107.62Y6.74
X107.696Y15.494
X107.95Y40.386
X108.89Y3.692
X110.668Y18.424
X111.176Y43.824
X111.43Y30.362
X113.671Y41.329
X114.732Y16.138
X115.748Y18.424
T6
X25.4Y33.787
X25.4Y31.247
X35.809Y44.958
X38.349Y44.958
X67.549Y10.16
X70.089Y10.16
X72.629Y10.16
X86.985Y8.128
X89.525Y8.128
X92.065Y8.128
X93.213Y28.448
X94.605Y8.128
X95.753Y28.448
T7
X7.2Y26.75
X10.2Y22.05
X13.2Y26.75
T5
G00X2.5Y43.32
M15
G01X1.2Y43.32
M16
G05
G00X2.5Y34.68
M15
G01X1.2Y34.68
M16
G05
G00X2.802Y16.512
M15
G01X1.502Y16.512
M16
G05
G00X2.802Y7.872
M15
G01X1.502Y7.872
M16
G05
G00X6.175Y43.32
M15
G01X5.175Y43.32
M16
G05
G00X6.175Y34.68
M15
G01X5.175Y34.68
M16
G05
G00X6.477Y16.512
M15
G01X5.477Y16.512
M16
G05
G00X6.477Y7.872
M15
G01X5.477Y7.872
M16
G05
M30
