%TF.GenerationSoftware,KiCad,Pcbnew,9.0.0*%
%TF.CreationDate,2025-11-05T20:35:52+03:00*%
%TF.ProjectId,harp.device.quad.dac,68617270-2e64-4657-9669-63652e717561,1.1*%
%TF.SameCoordinates,PX81941e8PY5f5e100*%
%TF.FileFunction,Soldermask,Top*%
%TF.FilePolarity,Negative*%
%FSLAX46Y46*%
G04 Gerber Fmt 4.6, Leading zero omitted, Abs format (unit mm)*
G04 Created by KiCad (PCBNEW 9.0.0) date 2025-11-05 20:35:52*
%MOMM*%
%LPD*%
G01*
G04 APERTURE LIST*
G04 Aperture macros list*
%AMRoundRect*
0 Rectangle with rounded corners*
0 $1 Rounding radius*
0 $2 $3 $4 $5 $6 $7 $8 $9 X,Y pos of 4 corners*
0 Add a 4 corners polygon primitive as box body*
4,1,4,$2,$3,$4,$5,$6,$7,$8,$9,$2,$3,0*
0 Add four circle primitives for the rounded corners*
1,1,$1+$1,$2,$3*
1,1,$1+$1,$4,$5*
1,1,$1+$1,$6,$7*
1,1,$1+$1,$8,$9*
0 Add four rect primitives between the rounded corners*
20,1,$1+$1,$2,$3,$4,$5,0*
20,1,$1+$1,$4,$5,$6,$7,0*
20,1,$1+$1,$6,$7,$8,$9,0*
20,1,$1+$1,$8,$9,$2,$3,0*%
%AMFreePoly0*
4,1,32,6.515355,1.015355,6.530000,0.980000,6.530000,-1.460000,6.515355,-1.495355,6.480000,-1.510000,4.370000,-1.510000,4.334645,-1.495355,4.331733,-1.492182,4.233311,-1.375152,4.010127,-1.166712,3.760982,-0.990846,3.490208,-0.850542,3.202845,-0.748414,2.904254,-0.686366,2.600000,-0.665554,2.295745,-0.686366,1.997154,-0.748414,1.709791,-0.850542,1.439017,-0.990846,1.189872,-1.166712,
0.966688,-1.375152,0.868267,-1.492182,0.834303,-1.509815,0.830000,-1.510000,-1.280000,-1.510000,-1.315355,-1.495355,-1.330000,-1.460000,-1.330000,0.980000,-1.315355,1.015355,-1.280000,1.030000,6.480000,1.030000,6.515355,1.015355,6.515355,1.015355,$1*%
G04 Aperture macros list end*
%ADD10R,0.800000X0.800000*%
%ADD11R,0.762000X1.270000*%
%ADD12R,2.670000X2.540000*%
%ADD13R,1.700000X1.700000*%
%ADD14O,1.700000X1.700000*%
%ADD15R,0.800000X0.700000*%
%ADD16R,0.900000X1.000000*%
%ADD17R,1.700000X0.550000*%
%ADD18RoundRect,0.200000X-0.275000X0.200000X-0.275000X-0.200000X0.275000X-0.200000X0.275000X0.200000X0*%
%ADD19RoundRect,0.200000X0.275000X-0.200000X0.275000X0.200000X-0.275000X0.200000X-0.275000X-0.200000X0*%
%ADD20R,0.762000X1.143000*%
%ADD21RoundRect,0.225000X0.225000X0.250000X-0.225000X0.250000X-0.225000X-0.250000X0.225000X-0.250000X0*%
%ADD22RoundRect,0.225000X-0.250000X0.225000X-0.250000X-0.225000X0.250000X-0.225000X0.250000X0.225000X0*%
%ADD23C,0.600000*%
%ADD24R,2.000000X1.000000*%
%ADD25O,0.600000X0.850000*%
%ADD26R,1.000000X0.520000*%
%ADD27R,1.000000X0.270000*%
%ADD28O,2.300000X1.300000*%
%ADD29O,2.600000X1.300000*%
%ADD30C,3.200000*%
%ADD31R,1.270000X0.762000*%
%ADD32R,2.540000X2.670000*%
%ADD33R,0.280000X0.250000*%
%ADD34R,1.700000X2.000000*%
%ADD35RoundRect,0.250000X-0.650000X0.325000X-0.650000X-0.325000X0.650000X-0.325000X0.650000X0.325000X0*%
%ADD36RoundRect,0.225000X-0.225000X-0.250000X0.225000X-0.250000X0.225000X0.250000X-0.225000X0.250000X0*%
%ADD37C,2.050000*%
%ADD38FreePoly0,180.000000*%
%ADD39FreePoly0,0.000000*%
%ADD40R,0.500000X0.600000*%
%ADD41FreePoly0,270.000000*%
%ADD42FreePoly0,90.000000*%
%ADD43RoundRect,0.225000X0.250000X-0.225000X0.250000X0.225000X-0.250000X0.225000X-0.250000X-0.225000X0*%
%ADD44RoundRect,0.086360X0.538640X0.086360X-0.538640X0.086360X-0.538640X-0.086360X0.538640X-0.086360X0*%
%ADD45R,0.250000X0.700000*%
%ADD46R,2.380000X1.650000*%
%ADD47RoundRect,0.200000X0.200000X0.275000X-0.200000X0.275000X-0.200000X-0.275000X0.200000X-0.275000X0*%
%ADD48RoundRect,0.200000X-0.200000X-0.275000X0.200000X-0.275000X0.200000X0.275000X-0.200000X0.275000X0*%
%ADD49C,1.000000*%
%ADD50R,0.450000X1.016000*%
%ADD51R,2.947000X1.753000*%
%ADD52RoundRect,0.086360X0.086360X-0.538640X0.086360X0.538640X-0.086360X0.538640X-0.086360X-0.538640X0*%
%ADD53RoundRect,0.250000X0.625000X-0.312500X0.625000X0.312500X-0.625000X0.312500X-0.625000X-0.312500X0*%
%ADD54R,0.600000X0.850000*%
%ADD55R,0.780000X0.220000*%
%ADD56R,0.220000X0.780000*%
%ADD57C,0.500000*%
%ADD58R,3.400000X3.400000*%
%ADD59RoundRect,0.162500X-0.650000X-0.162500X0.650000X-0.162500X0.650000X0.162500X-0.650000X0.162500X0*%
%ADD60R,1.430000X5.500000*%
%ADD61RoundRect,0.150000X-0.875000X-0.150000X0.875000X-0.150000X0.875000X0.150000X-0.875000X0.150000X0*%
%ADD62R,3.200000X0.810000*%
%ADD63R,0.600000X1.300000*%
%ADD64R,0.250000X0.280000*%
%ADD65R,4.340000X2.440000*%
%ADD66R,2.160000X1.070000*%
%ADD67R,7.000000X8.330000*%
%ADD68R,1.910000X1.235000*%
%ADD69R,2.600000X2.600000*%
%ADD70C,2.600000*%
%ADD71RoundRect,0.075000X0.075000X0.075000X-0.075000X0.075000X-0.075000X-0.075000X0.075000X-0.075000X0*%
%ADD72R,2.000000X1.500000*%
%ADD73R,2.000000X3.800000*%
%ADD74C,1.700000*%
%ADD75R,2.800000X2.200000*%
%ADD76R,2.800000X2.800000*%
%ADD77R,2.800000X2.600000*%
%ADD78R,3.050000X2.030000*%
%ADD79R,8.380000X10.660000*%
G04 APERTURE END LIST*
D10*
%TO.C,LED1*%
X61418000Y1536000D03*
X61418000Y3036000D03*
%TD*%
%TO.C,LED8*%
X2552000Y18796000D03*
X4052000Y18796000D03*
%TD*%
%TO.C,LED5*%
X89840000Y32533000D03*
X89840000Y34033000D03*
%TD*%
%TO.C,LED3*%
X66598000Y1536000D03*
X66598000Y3036000D03*
%TD*%
%TO.C,LED7*%
X64313000Y32787000D03*
X64313000Y34287000D03*
%TD*%
%TO.C,LED2*%
X64008000Y1536000D03*
X64008000Y3036000D03*
%TD*%
%TO.C,LED9*%
X16776000Y44958000D03*
X18276000Y44958000D03*
%TD*%
%TO.C,LED6*%
X76886000Y32533000D03*
X76886000Y34033000D03*
%TD*%
%TO.C,LED4*%
X103302000Y32279000D03*
X103302000Y33779000D03*
%TD*%
D11*
%TO.C,Z3*%
X48896500Y24384000D03*
D12*
X46545500Y24384000D03*
%TD*%
D13*
%TO.C,Jump3*%
X35809000Y44958000D03*
D14*
X38349000Y44958000D03*
%TD*%
D15*
%TO.C,Xtal1*%
X81570000Y11574000D03*
X82870000Y11574000D03*
X82870000Y12574000D03*
X81570000Y12574000D03*
%TD*%
D16*
%TO.C,SW2*%
X27450000Y3145000D03*
X27450000Y1545000D03*
X23350000Y1545000D03*
X23350000Y3145000D03*
D17*
X25400000Y3770000D03*
%TD*%
D11*
%TO.C,Z4*%
X56516500Y27940000D03*
D12*
X54165500Y27940000D03*
%TD*%
D18*
%TO.C,R11*%
X92456000Y25717000D03*
X92456000Y24067000D03*
%TD*%
D19*
%TO.C,R40*%
X66726000Y45285000D03*
X66726000Y46935000D03*
%TD*%
D18*
%TO.C,R101*%
X113047000Y24117000D03*
X113047000Y22467000D03*
%TD*%
D20*
%TO.C,U13*%
X60503000Y38318000D03*
X61773000Y38318000D03*
X63043000Y38318000D03*
X64313000Y38318000D03*
X64313000Y43742000D03*
X63043000Y43742000D03*
X61773000Y43742000D03*
X60503000Y43742000D03*
%TD*%
D21*
%TO.C,C148*%
X40450000Y47311000D03*
X38900000Y47311000D03*
%TD*%
D22*
%TO.C,C151*%
X16307000Y53928000D03*
X16307000Y52378000D03*
%TD*%
D23*
%TO.C,J10*%
X4950000Y42000000D03*
D24*
X1850000Y40400000D03*
X1850000Y37600000D03*
D25*
X4950000Y36000000D03*
D26*
X6050000Y42100000D03*
X6050000Y41350000D03*
D27*
X6050000Y40750000D03*
X6050000Y39250000D03*
X6050000Y38250000D03*
X6050000Y37250000D03*
D26*
X6050000Y36650000D03*
X6050000Y35900000D03*
X6050000Y35900000D03*
X6050000Y36650000D03*
D27*
X6050000Y37750000D03*
X6050000Y38750000D03*
X6050000Y39750000D03*
X6050000Y40250000D03*
D26*
X6050000Y41350000D03*
X6050000Y42100000D03*
D28*
X5675000Y43320000D03*
D29*
X1850000Y43320000D03*
D28*
X5675000Y34680000D03*
D29*
X1850000Y34680000D03*
%TD*%
D30*
%TO.C,H1*%
X120000000Y57000000D03*
%TD*%
D19*
%TO.C,R34*%
X104953000Y45285000D03*
X104953000Y46935000D03*
%TD*%
D22*
%TO.C,C97*%
X25654000Y17285000D03*
X25654000Y15735000D03*
%TD*%
D31*
%TO.C,Z1*%
X16510000Y30354500D03*
D32*
X16510000Y28003500D03*
%TD*%
D33*
%TO.C,TVS7*%
X113013000Y46110000D03*
X112573000Y46110000D03*
%TD*%
D34*
%TO.C,L3*%
X38608000Y30020000D03*
X38608000Y36020000D03*
%TD*%
D35*
%TO.C,C120*%
X22352000Y30685000D03*
X22352000Y27735000D03*
%TD*%
D36*
%TO.C,C47*%
X57696000Y43697000D03*
X59246000Y43697000D03*
%TD*%
D21*
%TO.C,C143*%
X48781000Y29210000D03*
X47231000Y29210000D03*
%TD*%
D22*
%TO.C,C5*%
X81853801Y29909806D03*
X81853801Y28359806D03*
%TD*%
D18*
%TO.C,R37*%
X91364000Y43760000D03*
X91364000Y42110000D03*
%TD*%
D13*
%TO.C,J1*%
X94605000Y8128000D03*
D14*
X92065000Y8128000D03*
X89525000Y8128000D03*
X86985000Y8128000D03*
%TD*%
D37*
%TO.C,J6*%
X118127000Y49200000D03*
D38*
X120727000Y46300000D03*
D39*
X115527000Y52100000D03*
%TD*%
D40*
%TO.C,TVS18*%
X74442000Y49920000D03*
X73742000Y49920000D03*
%TD*%
D37*
%TO.C,J14*%
X23800000Y55000000D03*
D41*
X26700000Y57600000D03*
D42*
X20900000Y52400000D03*
%TD*%
D18*
%TO.C,R107*%
X41148000Y24955000D03*
X41148000Y23305000D03*
%TD*%
D21*
%TO.C,C119*%
X47003000Y41402000D03*
X45453000Y41402000D03*
%TD*%
D43*
%TO.C,C52*%
X90729000Y45335000D03*
X90729000Y46885000D03*
%TD*%
D18*
%TO.C,R117*%
X44882000Y32575000D03*
X44882000Y30925000D03*
%TD*%
D43*
%TO.C,C6*%
X78664000Y11045000D03*
X78664000Y12595000D03*
%TD*%
D36*
%TO.C,C106*%
X112509000Y30480000D03*
X114059000Y30480000D03*
%TD*%
D21*
%TO.C,C131*%
X33033000Y42164000D03*
X31483000Y42164000D03*
%TD*%
%TO.C,C125*%
X33033000Y40894000D03*
X31483000Y40894000D03*
%TD*%
D44*
%TO.C,U24*%
X114770000Y16700000D03*
X114770000Y17200000D03*
X114770000Y17700000D03*
X114770000Y18200000D03*
X111970000Y18200000D03*
X111970000Y17700000D03*
X111970000Y17200000D03*
X111970000Y16700000D03*
%TD*%
D45*
%TO.C,U8*%
X72051000Y32427500D03*
X72551000Y32427500D03*
X73051000Y32427500D03*
X73551000Y32427500D03*
X74051000Y32427500D03*
X74051000Y35277500D03*
X73551000Y35277500D03*
X73051000Y35277500D03*
X72551000Y35277500D03*
X72051000Y35277500D03*
D46*
X73051000Y33852500D03*
%TD*%
D33*
%TO.C,TVS15*%
X23580000Y49920000D03*
X24020000Y49920000D03*
%TD*%
D19*
%TO.C,R100*%
X113174000Y11037000D03*
X113174000Y12687000D03*
%TD*%
D22*
%TO.C,C98*%
X99822000Y7125000D03*
X99822000Y5575000D03*
%TD*%
D47*
%TO.C,R128*%
X37147000Y48514000D03*
X35497000Y48514000D03*
%TD*%
D20*
%TO.C,U11*%
X86030000Y38318000D03*
X87300000Y38318000D03*
X88570000Y38318000D03*
X89840000Y38318000D03*
X89840000Y43742000D03*
X88570000Y43742000D03*
X87300000Y43742000D03*
X86030000Y43742000D03*
%TD*%
D13*
%TO.C,J2*%
X72629000Y10160000D03*
D14*
X70089000Y10160000D03*
X67549000Y10160000D03*
%TD*%
D48*
%TO.C,R131*%
X22975000Y48454000D03*
X24625000Y48454000D03*
%TD*%
D33*
%TO.C,TVS14*%
X11320000Y49920000D03*
X10880000Y49920000D03*
%TD*%
D49*
%TO.C,FID3*%
X115127000Y57000000D03*
%TD*%
D50*
%TO.C,U26*%
X49301000Y38408500D03*
X48651000Y38408500D03*
X48001000Y38408500D03*
X47351000Y38408500D03*
X46701000Y38408500D03*
X46051000Y38408500D03*
X46051000Y33984500D03*
X46701000Y33984500D03*
X47351000Y33984500D03*
X48001000Y33984500D03*
X48651000Y33984500D03*
X49301000Y33984500D03*
D51*
X47676000Y36196500D03*
%TD*%
D22*
%TO.C,C55*%
X80061000Y43710000D03*
X80061000Y42160000D03*
%TD*%
D19*
%TO.C,R21*%
X75235000Y32458000D03*
X75235000Y34108000D03*
%TD*%
D52*
%TO.C,U31*%
X41846000Y47308000D03*
X42346000Y47308000D03*
X42846000Y47308000D03*
X43346000Y47308000D03*
X43346000Y50108000D03*
X42846000Y50108000D03*
X42346000Y50108000D03*
X41846000Y50108000D03*
%TD*%
D53*
%TO.C,RSh3*%
X74600000Y45409500D03*
X74600000Y48334500D03*
%TD*%
D18*
%TO.C,R124*%
X29972000Y38671000D03*
X29972000Y37021000D03*
%TD*%
D16*
%TO.C,SW3*%
X37610000Y3145000D03*
X37610000Y1545000D03*
X33510000Y1545000D03*
X33510000Y3145000D03*
D17*
X35560000Y3770000D03*
%TD*%
D53*
%TO.C,RSh2*%
X87300000Y45409500D03*
X87300000Y48334500D03*
%TD*%
D19*
%TO.C,R31*%
X81585000Y42110000D03*
X81585000Y43760000D03*
%TD*%
D21*
%TO.C,C124*%
X33033000Y38354000D03*
X31483000Y38354000D03*
%TD*%
D49*
%TO.C,FID1*%
X3000000Y52000000D03*
%TD*%
D54*
%TO.C,D6*%
X53914000Y36442000D03*
X55814000Y36442000D03*
X54864000Y38742000D03*
%TD*%
D55*
%TO.C,U1*%
X78161500Y23866000D03*
X78161500Y23466000D03*
X78161500Y23066000D03*
X78161500Y22666000D03*
X78161500Y22266000D03*
X78161500Y21866000D03*
X78161500Y21466000D03*
X78161500Y21066000D03*
X78161500Y20666000D03*
X78161500Y20266000D03*
X78161500Y19866000D03*
X78161500Y19466000D03*
X78161500Y19066000D03*
X78161500Y18666000D03*
X78161500Y18266000D03*
X78161500Y17866000D03*
X78161500Y17466000D03*
X78161500Y17066000D03*
X78161500Y16666000D03*
X78161500Y16266000D03*
D56*
X79258000Y15169500D03*
X79658000Y15169500D03*
X80058000Y15169500D03*
X80458000Y15169500D03*
X80858000Y15169500D03*
X81258000Y15169500D03*
X81658000Y15169500D03*
X82058000Y15169500D03*
X82458000Y15169500D03*
X82858000Y15169500D03*
X83258000Y15169500D03*
X83658000Y15169500D03*
X84058000Y15169500D03*
X84458000Y15169500D03*
X84858000Y15169500D03*
X85258000Y15169500D03*
X85658000Y15169500D03*
X86058000Y15169500D03*
X86458000Y15169500D03*
X86858000Y15169500D03*
D55*
X87954500Y16266000D03*
X87954500Y16666000D03*
X87954500Y17066000D03*
X87954500Y17466000D03*
X87954500Y17866000D03*
X87954500Y18266000D03*
X87954500Y18666000D03*
X87954500Y19066000D03*
X87954500Y19466000D03*
X87954500Y19866000D03*
X87954500Y20266000D03*
X87954500Y20666000D03*
X87954500Y21066000D03*
X87954500Y21466000D03*
X87954500Y21866000D03*
X87954500Y22266000D03*
X87954500Y22666000D03*
X87954500Y23066000D03*
X87954500Y23466000D03*
X87954500Y23866000D03*
D56*
X86858000Y24962500D03*
X86458000Y24962500D03*
X86058000Y24962500D03*
X85658000Y24962500D03*
X85258000Y24962500D03*
X84858000Y24962500D03*
X84458000Y24962500D03*
X84058000Y24962500D03*
X83658000Y24962500D03*
X83258000Y24962500D03*
X82858000Y24962500D03*
X82458000Y24962500D03*
X82058000Y24962500D03*
X81658000Y24962500D03*
X81258000Y24962500D03*
X80858000Y24962500D03*
X80458000Y24962500D03*
X80058000Y24962500D03*
X79658000Y24962500D03*
X79258000Y24962500D03*
D57*
X82208000Y20916000D03*
X82208000Y20066000D03*
X82208000Y19216000D03*
X83058000Y20916000D03*
X83058000Y20066000D03*
D58*
X83058000Y20066000D03*
D57*
X83058000Y19216000D03*
X83908000Y20916000D03*
X83908000Y20066000D03*
X83908000Y19216000D03*
%TD*%
D43*
%TO.C,C95*%
X9830000Y14601000D03*
X9830000Y16151000D03*
%TD*%
D59*
%TO.C,U3*%
X79724500Y5207000D03*
X79724500Y3937000D03*
X79724500Y2667000D03*
X79724500Y1397000D03*
X86899500Y1397000D03*
X86899500Y2667000D03*
X86899500Y3937000D03*
X86899500Y5207000D03*
%TD*%
D22*
%TO.C,C53*%
X92888000Y43710000D03*
X92888000Y42160000D03*
%TD*%
D60*
%TO.C,L2*%
X53074000Y42672000D03*
X49034000Y42672000D03*
%TD*%
D21*
%TO.C,C34*%
X72200000Y36712000D03*
X70650000Y36712000D03*
%TD*%
D19*
%TO.C,R29*%
X94412000Y42110000D03*
X94412000Y43760000D03*
%TD*%
%TO.C,R19*%
X101651000Y32077000D03*
X101651000Y33727000D03*
%TD*%
D22*
%TO.C,C114*%
X39878000Y24905000D03*
X39878000Y23355000D03*
%TD*%
D40*
%TO.C,TVS16*%
X100096000Y49920000D03*
X99396000Y49920000D03*
%TD*%
D21*
%TO.C,C126*%
X33033000Y43434000D03*
X31483000Y43434000D03*
%TD*%
%TO.C,C134*%
X54623000Y35052000D03*
X53073000Y35052000D03*
%TD*%
%TO.C,C35*%
X59500000Y36712000D03*
X57950000Y36712000D03*
%TD*%
D37*
%TO.C,J12*%
X49200000Y55000000D03*
D41*
X52100000Y57600000D03*
D42*
X46300000Y52400000D03*
%TD*%
D48*
%TO.C,R96*%
X25591000Y11938000D03*
X27241000Y11938000D03*
%TD*%
D36*
%TO.C,C40*%
X89827000Y36839000D03*
X91377000Y36839000D03*
%TD*%
D22*
%TO.C,C150*%
X41961000Y53293000D03*
X41961000Y51743000D03*
%TD*%
%TO.C,C145*%
X29388000Y29867000D03*
X29388000Y28317000D03*
%TD*%
D59*
%TO.C,U5*%
X90138500Y5207000D03*
X90138500Y3937000D03*
X90138500Y2667000D03*
X90138500Y1397000D03*
X97313500Y1397000D03*
X97313500Y2667000D03*
X97313500Y3937000D03*
X97313500Y5207000D03*
%TD*%
D48*
%TO.C,R113*%
X16701000Y43434000D03*
X18351000Y43434000D03*
%TD*%
D33*
%TO.C,TVS8*%
X113140000Y13767000D03*
X112700000Y13767000D03*
%TD*%
D43*
%TO.C,C9*%
X77394000Y11045000D03*
X77394000Y12595000D03*
%TD*%
D16*
%TO.C,SW4*%
X47770000Y3145000D03*
X47770000Y1545000D03*
X43670000Y1545000D03*
X43670000Y3145000D03*
D17*
X45720000Y3770000D03*
%TD*%
D36*
%TO.C,C41*%
X78397000Y38363000D03*
X79947000Y38363000D03*
%TD*%
D19*
%TO.C,R36*%
X92253000Y45285000D03*
X92253000Y46935000D03*
%TD*%
D22*
%TO.C,C45*%
X84760000Y45234000D03*
X84760000Y43684000D03*
%TD*%
D36*
%TO.C,C42*%
X65570000Y38363000D03*
X67120000Y38363000D03*
%TD*%
D21*
%TO.C,C142*%
X54623000Y32512000D03*
X53073000Y32512000D03*
%TD*%
D13*
%TO.C,Jump1*%
X93213000Y28448000D03*
D14*
X95753000Y28448000D03*
%TD*%
D61*
%TO.C,U22*%
X14146000Y18415000D03*
X14146000Y17145000D03*
X14146000Y15875000D03*
X14146000Y14605000D03*
X14146000Y13335000D03*
X14146000Y12065000D03*
X14146000Y10795000D03*
X14146000Y9525000D03*
X23446000Y9525000D03*
X23446000Y10795000D03*
X23446000Y12065000D03*
X23446000Y13335000D03*
X23446000Y14605000D03*
X23446000Y15875000D03*
X23446000Y17145000D03*
X23446000Y18415000D03*
%TD*%
D62*
%TO.C,L1*%
X87554000Y26414000D03*
X87554000Y28214000D03*
%TD*%
D37*
%TO.C,J8*%
X118127000Y23800000D03*
D38*
X120727000Y20900000D03*
D39*
X115527000Y26700000D03*
%TD*%
D22*
%TO.C,C147*%
X30988000Y29105000D03*
X30988000Y27555000D03*
%TD*%
%TO.C,C44*%
X97333000Y45234000D03*
X97333000Y43684000D03*
%TD*%
D36*
%TO.C,C39*%
X102527000Y36839000D03*
X104077000Y36839000D03*
%TD*%
D43*
%TO.C,C99*%
X101092000Y5575000D03*
X101092000Y7125000D03*
%TD*%
D63*
%TO.C,U2*%
X94046000Y24096000D03*
X95946000Y24096000D03*
X94996000Y26196000D03*
%TD*%
D18*
%TO.C,R126*%
X40386000Y19113000D03*
X40386000Y17463000D03*
%TD*%
D48*
%TO.C,R129*%
X47613000Y48200000D03*
X49263000Y48200000D03*
%TD*%
D43*
%TO.C,C54*%
X78029000Y45335000D03*
X78029000Y46885000D03*
%TD*%
D48*
%TO.C,R95*%
X25591000Y10668000D03*
X27241000Y10668000D03*
%TD*%
D18*
%TO.C,R125*%
X28702000Y35115000D03*
X28702000Y33465000D03*
%TD*%
D44*
%TO.C,U23*%
X114770000Y42100000D03*
X114770000Y42600000D03*
X114770000Y43100000D03*
X114770000Y43600000D03*
X111970000Y43600000D03*
X111970000Y43100000D03*
X111970000Y42600000D03*
X111970000Y42100000D03*
%TD*%
D18*
%TO.C,R32*%
X63678000Y46935000D03*
X63678000Y45285000D03*
%TD*%
D30*
%TO.C,H2*%
X3000000Y3000000D03*
%TD*%
D37*
%TO.C,J11*%
X36500000Y55000000D03*
D41*
X39400000Y57600000D03*
D42*
X33600000Y52400000D03*
%TD*%
D30*
%TO.C,H3*%
X3000000Y57000000D03*
%TD*%
D37*
%TO.C,J17*%
X74600000Y55000000D03*
D41*
X77500000Y57600000D03*
D42*
X71700000Y52400000D03*
%TD*%
D36*
%TO.C,C146*%
X32423000Y29346000D03*
X33973000Y29346000D03*
%TD*%
D18*
%TO.C,R28*%
X89205000Y46935000D03*
X89205000Y45285000D03*
%TD*%
D36*
%TO.C,C122*%
X50787000Y38608000D03*
X52337000Y38608000D03*
%TD*%
D21*
%TO.C,C138*%
X48781000Y27940000D03*
X47231000Y27940000D03*
%TD*%
D45*
%TO.C,U6*%
X98492000Y32112000D03*
X98992000Y32112000D03*
X99492000Y32112000D03*
X99992000Y32112000D03*
X100492000Y32112000D03*
X100492000Y34962000D03*
X99992000Y34962000D03*
X99492000Y34962000D03*
X98992000Y34962000D03*
X98492000Y34962000D03*
D46*
X99492000Y33537000D03*
%TD*%
D64*
%TO.C,TVS5*%
X11684000Y15782000D03*
X11684000Y16222000D03*
%TD*%
D37*
%TO.C,J18*%
X61900000Y55000000D03*
D41*
X64800000Y57600000D03*
D42*
X59000000Y52400000D03*
%TD*%
D43*
%TO.C,C111*%
X9668000Y41389000D03*
X9668000Y42939000D03*
%TD*%
D16*
%TO.C,SW1*%
X17290000Y3145000D03*
X17290000Y1545000D03*
X13190000Y1545000D03*
X13190000Y3145000D03*
D17*
X15240000Y3770000D03*
%TD*%
D45*
%TO.C,U9*%
X59503000Y32493000D03*
X60003000Y32493000D03*
X60503000Y32493000D03*
X61003000Y32493000D03*
X61503000Y32493000D03*
X61503000Y35343000D03*
X61003000Y35343000D03*
X60503000Y35343000D03*
X60003000Y35343000D03*
X59503000Y35343000D03*
D46*
X60503000Y33918000D03*
%TD*%
D33*
%TO.C,TVS12*%
X36466000Y50038000D03*
X36026000Y50038000D03*
%TD*%
D21*
%TO.C,C136*%
X54623000Y33782000D03*
X53073000Y33782000D03*
%TD*%
D36*
%TO.C,C101*%
X116827000Y16688000D03*
X118377000Y16688000D03*
%TD*%
D33*
%TO.C,TVS9*%
X113013000Y21387000D03*
X112573000Y21387000D03*
%TD*%
D43*
%TO.C,C128*%
X50292000Y33007000D03*
X50292000Y34557000D03*
%TD*%
D19*
%TO.C,R127*%
X64516000Y24321000D03*
X64516000Y25971000D03*
%TD*%
D45*
%TO.C,U7*%
X85005000Y32427500D03*
X85505000Y32427500D03*
X86005000Y32427500D03*
X86505000Y32427500D03*
X87005000Y32427500D03*
X87005000Y35277500D03*
X86505000Y35277500D03*
X86005000Y35277500D03*
X85505000Y35277500D03*
X85005000Y35277500D03*
D46*
X86005000Y33852500D03*
%TD*%
D21*
%TO.C,C141*%
X48781000Y26670000D03*
X47231000Y26670000D03*
%TD*%
D18*
%TO.C,R41*%
X65837000Y43633000D03*
X65837000Y41983000D03*
%TD*%
D43*
%TO.C,C96*%
X26924000Y15735000D03*
X26924000Y17285000D03*
%TD*%
D45*
%TO.C,U27*%
X33500000Y35174000D03*
X33000000Y35174000D03*
X32500000Y35174000D03*
X32000000Y35174000D03*
X31500000Y35174000D03*
X31000000Y35174000D03*
X30500000Y35174000D03*
X30000000Y35174000D03*
X30000000Y31374000D03*
X30500000Y31374000D03*
X31000000Y31374000D03*
X31500000Y31374000D03*
X32000000Y31374000D03*
X32500000Y31374000D03*
X33000000Y31374000D03*
X33500000Y31374000D03*
D65*
X31750000Y33274000D03*
%TD*%
D43*
%TO.C,C17*%
X89916000Y24117000D03*
X89916000Y25667000D03*
%TD*%
D47*
%TO.C,R17*%
X69837000Y7248000D03*
X68187000Y7248000D03*
%TD*%
D36*
%TO.C,C104*%
X108953000Y16256000D03*
X110503000Y16256000D03*
%TD*%
D43*
%TO.C,C117*%
X18796000Y28435000D03*
X18796000Y29985000D03*
%TD*%
D22*
%TO.C,C57*%
X67361000Y43583000D03*
X67361000Y42033000D03*
%TD*%
D21*
%TO.C,C123*%
X33033000Y37084000D03*
X31483000Y37084000D03*
%TD*%
D19*
%TO.C,R98*%
X113047000Y36945000D03*
X113047000Y38595000D03*
%TD*%
D43*
%TO.C,C112*%
X11192000Y41389000D03*
X11192000Y42939000D03*
%TD*%
D37*
%TO.C,J7*%
X118127000Y11100000D03*
D38*
X120727000Y8200000D03*
D39*
X115527000Y14000000D03*
%TD*%
D18*
%TO.C,R97*%
X109220000Y8191000D03*
X109220000Y6541000D03*
%TD*%
D22*
%TO.C,C51*%
X105461000Y43710000D03*
X105461000Y42160000D03*
%TD*%
D37*
%TO.C,J13*%
X11100000Y55000000D03*
D41*
X14000000Y57600000D03*
D42*
X8200000Y52400000D03*
%TD*%
D43*
%TO.C,C127*%
X44882000Y28181000D03*
X44882000Y29731000D03*
%TD*%
D21*
%TO.C,C139*%
X54623000Y29972000D03*
X53073000Y29972000D03*
%TD*%
D53*
%TO.C,RSh1*%
X100000000Y45409500D03*
X100000000Y48334500D03*
%TD*%
D43*
%TO.C,C8*%
X84901801Y28298250D03*
X84901801Y29848250D03*
%TD*%
D33*
%TO.C,TVS6*%
X112920000Y39760000D03*
X112480000Y39760000D03*
%TD*%
D22*
%TO.C,C130*%
X44704000Y35573000D03*
X44704000Y34023000D03*
%TD*%
D48*
%TO.C,R94*%
X10351000Y12700000D03*
X12001000Y12700000D03*
%TD*%
D19*
%TO.C,R108*%
X42418000Y23305000D03*
X42418000Y24955000D03*
%TD*%
D66*
%TO.C,U30*%
X64495500Y17780000D03*
X64495500Y20320000D03*
X64495500Y22860000D03*
D67*
X53825500Y20320000D03*
D68*
X51280500Y25102500D03*
X51280500Y15537500D03*
%TD*%
D19*
%TO.C,R10*%
X91186000Y24067000D03*
X91186000Y25717000D03*
%TD*%
D21*
%TO.C,C133*%
X48781000Y31750000D03*
X47231000Y31750000D03*
%TD*%
D18*
%TO.C,R39*%
X78537000Y43760000D03*
X78537000Y42110000D03*
%TD*%
D37*
%TO.C,J15*%
X100000000Y55000000D03*
D41*
X102900000Y57600000D03*
D42*
X97100000Y52400000D03*
%TD*%
D18*
%TO.C,R26*%
X101905000Y46935000D03*
X101905000Y45285000D03*
%TD*%
D22*
%TO.C,C118*%
X20320000Y29985000D03*
X20320000Y28435000D03*
%TD*%
D23*
%TO.C,J3*%
X5252000Y15192000D03*
D24*
X2152000Y13592000D03*
X2152000Y10792000D03*
D25*
X5252000Y9192000D03*
D26*
X6352000Y15292000D03*
X6352000Y14542000D03*
D27*
X6352000Y13942000D03*
X6352000Y12442000D03*
X6352000Y11442000D03*
X6352000Y10442000D03*
D26*
X6352000Y9842000D03*
X6352000Y9092000D03*
X6352000Y9092000D03*
X6352000Y9842000D03*
D27*
X6352000Y10942000D03*
X6352000Y11942000D03*
X6352000Y12942000D03*
X6352000Y13442000D03*
D26*
X6352000Y14542000D03*
X6352000Y15292000D03*
D28*
X5977000Y16512000D03*
D29*
X2152000Y16512000D03*
D28*
X5977000Y7872000D03*
D29*
X2152000Y7872000D03*
%TD*%
D47*
%TO.C,R130*%
X11925000Y48650000D03*
X10275000Y48650000D03*
%TD*%
D21*
%TO.C,C121*%
X47003000Y39878000D03*
X45453000Y39878000D03*
%TD*%
D22*
%TO.C,C94*%
X8382000Y16151000D03*
X8382000Y14601000D03*
%TD*%
D20*
%TO.C,U10*%
X98730000Y38318000D03*
X100000000Y38318000D03*
X101270000Y38318000D03*
X102540000Y38318000D03*
X102540000Y43742000D03*
X101270000Y43742000D03*
X100000000Y43742000D03*
X98730000Y43742000D03*
%TD*%
D18*
%TO.C,R35*%
X103937000Y43760000D03*
X103937000Y42110000D03*
%TD*%
D69*
%TO.C,J9*%
X13200000Y26750000D03*
D70*
X7200000Y26750000D03*
X10200000Y22050000D03*
%TD*%
D19*
%TO.C,R22*%
X62662000Y32458000D03*
X62662000Y34108000D03*
%TD*%
D40*
%TO.C,TVS17*%
X87396000Y49920000D03*
X86696000Y49920000D03*
%TD*%
D21*
%TO.C,C149*%
X15050000Y47946000D03*
X13500000Y47946000D03*
%TD*%
D18*
%TO.C,R99*%
X113047000Y48755000D03*
X113047000Y47105000D03*
%TD*%
D71*
%TO.C,TVS4*%
X8910000Y10975000D03*
X8210000Y10975000D03*
X8560000Y10125000D03*
%TD*%
D36*
%TO.C,C103*%
X108699000Y41656000D03*
X110249000Y41656000D03*
%TD*%
D37*
%TO.C,J5*%
X118127000Y36500000D03*
D38*
X120727000Y33600000D03*
D39*
X115527000Y39400000D03*
%TD*%
D21*
%TO.C,C129*%
X33033000Y39624000D03*
X31483000Y39624000D03*
%TD*%
D19*
%TO.C,R27*%
X106985000Y42110000D03*
X106985000Y43760000D03*
%TD*%
D18*
%TO.C,R116*%
X44958000Y38417000D03*
X44958000Y36767000D03*
%TD*%
D64*
%TO.C,TVS11*%
X12208000Y41944000D03*
X12208000Y42384000D03*
%TD*%
D11*
%TO.C,Z2*%
X33148500Y45720000D03*
D12*
X30797500Y45720000D03*
%TD*%
D43*
%TO.C,C56*%
X65202000Y45335000D03*
X65202000Y46885000D03*
%TD*%
D48*
%TO.C,R93*%
X10351000Y11176000D03*
X12001000Y11176000D03*
%TD*%
D30*
%TO.C,H4*%
X120000000Y3000000D03*
%TD*%
D16*
%TO.C,SW5*%
X57930000Y3145000D03*
X57930000Y1545000D03*
X53830000Y1545000D03*
X53830000Y3145000D03*
D17*
X55880000Y3770000D03*
%TD*%
D40*
%TO.C,TVS19*%
X61996000Y49920000D03*
X61296000Y49920000D03*
%TD*%
D21*
%TO.C,C144*%
X54623000Y31242000D03*
X53073000Y31242000D03*
%TD*%
D36*
%TO.C,C46*%
X70396000Y43697000D03*
X71946000Y43697000D03*
%TD*%
%TO.C,C100*%
X116827000Y42088000D03*
X118377000Y42088000D03*
%TD*%
D13*
%TO.C,Jump2*%
X25400000Y33787000D03*
D14*
X25400000Y31247000D03*
%TD*%
D37*
%TO.C,J16*%
X87300000Y55000000D03*
D41*
X90200000Y57600000D03*
D42*
X84400000Y52400000D03*
%TD*%
D59*
%TO.C,U4*%
X69818500Y5207000D03*
X69818500Y3937000D03*
X69818500Y2667000D03*
X69818500Y1397000D03*
X76993500Y1397000D03*
X76993500Y2667000D03*
X76993500Y3937000D03*
X76993500Y5207000D03*
%TD*%
D72*
%TO.C,U29*%
X48870000Y16750000D03*
X48870000Y19050000D03*
D73*
X42570000Y19050000D03*
D72*
X48870000Y21350000D03*
%TD*%
D19*
%TO.C,R38*%
X79553000Y45285000D03*
X79553000Y46935000D03*
%TD*%
%TO.C,R20*%
X88189000Y32458000D03*
X88189000Y34108000D03*
%TD*%
D21*
%TO.C,C135*%
X48781000Y30480000D03*
X47231000Y30480000D03*
%TD*%
%TO.C,C33*%
X85256000Y36712000D03*
X83706000Y36712000D03*
%TD*%
D22*
%TO.C,C2*%
X82869801Y29909806D03*
X82869801Y28359806D03*
%TD*%
D53*
%TO.C,RSh4*%
X61773000Y45409500D03*
X61773000Y48334500D03*
%TD*%
D43*
%TO.C,C137*%
X28702000Y37071000D03*
X28702000Y38621000D03*
%TD*%
D20*
%TO.C,U12*%
X73330000Y38318000D03*
X74600000Y38318000D03*
X75870000Y38318000D03*
X77140000Y38318000D03*
X77140000Y43742000D03*
X75870000Y43742000D03*
X74600000Y43742000D03*
X73330000Y43742000D03*
%TD*%
D19*
%TO.C,R33*%
X68885000Y41983000D03*
X68885000Y43633000D03*
%TD*%
D33*
%TO.C,TVS13*%
X49166000Y49851000D03*
X48726000Y49851000D03*
%TD*%
D21*
%TO.C,C32*%
X98489000Y36331000D03*
X96939000Y36331000D03*
%TD*%
D49*
%TO.C,FID2*%
X7366000Y2032000D03*
%TD*%
D18*
%TO.C,R30*%
X76505000Y46935000D03*
X76505000Y45285000D03*
%TD*%
D22*
%TO.C,C109*%
X8144000Y42939000D03*
X8144000Y41389000D03*
%TD*%
D43*
%TO.C,C50*%
X103429000Y45335000D03*
X103429000Y46885000D03*
%TD*%
D52*
%TO.C,U32*%
X16319000Y47943000D03*
X16819000Y47943000D03*
X17319000Y47943000D03*
X17819000Y47943000D03*
X17819000Y50743000D03*
X17319000Y50743000D03*
X16819000Y50743000D03*
X16319000Y50743000D03*
%TD*%
D43*
%TO.C,C11*%
X83885801Y28359806D03*
X83885801Y29909806D03*
%TD*%
D74*
%TO.C,J4*%
X105156000Y2500000D03*
X105156000Y9500000D03*
D75*
X101456000Y3400000D03*
X108856000Y1400000D03*
D76*
X108856000Y10800000D03*
D77*
X104406000Y14800000D03*
%TD*%
D43*
%TO.C,C3*%
X79934000Y11045000D03*
X79934000Y12595000D03*
%TD*%
D78*
%TO.C,D5*%
X10629000Y39624000D03*
X10629000Y34544000D03*
D79*
X19244000Y37084000D03*
%TD*%
M02*
