%TF.GenerationSoftware,KiCad,Pcbnew,9.0.0*%
%TF.CreationDate,2025-11-05T20:35:52+03:00*%
%TF.ProjectId,harp.device.quad.dac,68617270-2e64-4657-9669-63652e717561,1.1*%
%TF.SameCoordinates,PX81941e8PY5f5e100*%
%TF.FileFunction,Paste,Bot*%
%TF.FilePolarity,Positive*%
%FSLAX46Y46*%
G04 Gerber Fmt 4.6, Leading zero omitted, Abs format (unit mm)*
G04 Created by KiCad (PCBNEW 9.0.0) date 2025-11-05 20:35:52*
%MOMM*%
%LPD*%
G01*
G04 APERTURE LIST*
G04 Aperture macros list*
%AMRoundRect*
0 Rectangle with rounded corners*
0 $1 Rounding radius*
0 $2 $3 $4 $5 $6 $7 $8 $9 X,Y pos of 4 corners*
0 Add a 4 corners polygon primitive as box body*
4,1,4,$2,$3,$4,$5,$6,$7,$8,$9,$2,$3,0*
0 Add four circle primitives for the rounded corners*
1,1,$1+$1,$2,$3*
1,1,$1+$1,$4,$5*
1,1,$1+$1,$6,$7*
1,1,$1+$1,$8,$9*
0 Add four rect primitives between the rounded corners*
20,1,$1+$1,$2,$3,$4,$5,0*
20,1,$1+$1,$4,$5,$6,$7,0*
20,1,$1+$1,$6,$7,$8,$9,0*
20,1,$1+$1,$8,$9,$2,$3,0*%
G04 Aperture macros list end*
%ADD10RoundRect,0.225000X0.250000X-0.225000X0.250000X0.225000X-0.250000X0.225000X-0.250000X-0.225000X0*%
%ADD11RoundRect,0.200000X-0.200000X-0.275000X0.200000X-0.275000X0.200000X0.275000X-0.200000X0.275000X0*%
%ADD12RoundRect,0.225000X-0.250000X0.225000X-0.250000X-0.225000X0.250000X-0.225000X0.250000X0.225000X0*%
%ADD13RoundRect,0.200000X0.200000X0.275000X-0.200000X0.275000X-0.200000X-0.275000X0.200000X-0.275000X0*%
%ADD14RoundRect,0.200000X0.275000X-0.200000X0.275000X0.200000X-0.275000X0.200000X-0.275000X-0.200000X0*%
%ADD15RoundRect,0.225000X0.225000X0.250000X-0.225000X0.250000X-0.225000X-0.250000X0.225000X-0.250000X0*%
%ADD16RoundRect,0.200000X-0.275000X0.200000X-0.275000X-0.200000X0.275000X-0.200000X0.275000X0.200000X0*%
%ADD17RoundRect,0.225000X-0.225000X-0.250000X0.225000X-0.250000X0.225000X0.250000X-0.225000X0.250000X0*%
%ADD18R,0.250000X0.280000*%
%ADD19RoundRect,0.225000X-0.375000X0.225000X-0.375000X-0.225000X0.375000X-0.225000X0.375000X0.225000X0*%
%ADD20R,0.900000X0.400000*%
%ADD21R,1.500000X2.000000*%
%ADD22R,3.800000X2.000000*%
%ADD23R,1.143000X0.762000*%
%ADD24R,0.250000X0.675000*%
%ADD25R,0.400000X0.775000*%
%ADD26RoundRect,0.225000X-0.225000X-0.375000X0.225000X-0.375000X0.225000X0.375000X-0.225000X0.375000X0*%
%ADD27R,0.850000X0.300000*%
%ADD28R,1.550000X0.600000*%
%ADD29R,0.600000X1.550000*%
%ADD30RoundRect,0.086360X-0.538640X-0.086360X0.538640X-0.086360X0.538640X0.086360X-0.538640X0.086360X0*%
%ADD31R,0.280000X0.250000*%
G04 APERTURE END LIST*
D10*
%TO.C,C84*%
X106951000Y51092000D03*
X106951000Y52642000D03*
%TD*%
D11*
%TO.C,R78*%
X88346000Y49454000D03*
X89996000Y49454000D03*
%TD*%
%TO.C,R77*%
X52659000Y55296000D03*
X54309000Y55296000D03*
%TD*%
D12*
%TO.C,C72*%
X60977000Y56833000D03*
X60977000Y55283000D03*
%TD*%
%TO.C,C36*%
X67234000Y35201000D03*
X67234000Y33651000D03*
%TD*%
D13*
%TO.C,R48*%
X75391000Y50978000D03*
X73741000Y50978000D03*
%TD*%
D14*
%TO.C,R118*%
X48438000Y32331000D03*
X48438000Y33981000D03*
%TD*%
D15*
%TO.C,C93*%
X73317096Y14732000D03*
X71767096Y14732000D03*
%TD*%
D11*
%TO.C,R12*%
X93663000Y29972000D03*
X95313000Y29972000D03*
%TD*%
%TO.C,R73*%
X63454000Y44120000D03*
X65104000Y44120000D03*
%TD*%
D15*
%TO.C,C18*%
X87135000Y20066000D03*
X85585000Y20066000D03*
%TD*%
D16*
%TO.C,R74*%
X105427000Y52692000D03*
X105427000Y51042000D03*
%TD*%
D11*
%TO.C,R76*%
X67645000Y56185000D03*
X69295000Y56185000D03*
%TD*%
D16*
%TO.C,R18*%
X91872000Y2993000D03*
X91872000Y1343000D03*
%TD*%
D12*
%TO.C,C67*%
X60342000Y51245000D03*
X60342000Y49695000D03*
%TD*%
D10*
%TO.C,C82*%
X65041000Y46901000D03*
X65041000Y48451000D03*
%TD*%
D15*
%TO.C,C61*%
X100106000Y45009000D03*
X98556000Y45009000D03*
%TD*%
D17*
%TO.C,C22*%
X85585000Y21844000D03*
X87135000Y21844000D03*
%TD*%
D16*
%TO.C,R114*%
X24054000Y33219000D03*
X24054000Y31569000D03*
%TD*%
D15*
%TO.C,C27*%
X89091000Y5216000D03*
X87541000Y5216000D03*
%TD*%
D17*
%TO.C,C78*%
X90047000Y50978000D03*
X91597000Y50978000D03*
%TD*%
D10*
%TO.C,C48*%
X86360000Y35674000D03*
X86360000Y37224000D03*
%TD*%
D13*
%TO.C,R85*%
X54309000Y56566000D03*
X52659000Y56566000D03*
%TD*%
D17*
%TO.C,C29*%
X94907000Y5978000D03*
X96457000Y5978000D03*
%TD*%
D14*
%TO.C,R46*%
X100093000Y49476000D03*
X100093000Y51126000D03*
%TD*%
%TO.C,R57*%
X80027000Y48629000D03*
X80027000Y50279000D03*
%TD*%
D15*
%TO.C,C76*%
X60990000Y54026000D03*
X59440000Y54026000D03*
%TD*%
%TO.C,C74*%
X101867000Y58674000D03*
X100317000Y58674000D03*
%TD*%
D11*
%TO.C,R66*%
X67645000Y54915000D03*
X69295000Y54915000D03*
%TD*%
D12*
%TO.C,C31*%
X65710000Y35201000D03*
X65710000Y33651000D03*
%TD*%
D17*
%TO.C,C14*%
X42485626Y3048000D03*
X44035626Y3048000D03*
%TD*%
D15*
%TO.C,C64*%
X96931000Y56439000D03*
X95381000Y56439000D03*
%TD*%
D10*
%TO.C,C108*%
X11294000Y29079000D03*
X11294000Y30629000D03*
%TD*%
D18*
%TO.C,TVS1*%
X66700096Y14258000D03*
X66700096Y14698000D03*
%TD*%
D14*
%TO.C,R68*%
X55643000Y53455000D03*
X55643000Y55105000D03*
%TD*%
D11*
%TO.C,R106*%
X26785000Y29600000D03*
X28435000Y29600000D03*
%TD*%
D19*
%TO.C,D2*%
X93489000Y53771000D03*
X93489000Y50471000D03*
%TD*%
D12*
%TO.C,C65*%
X91584000Y55944000D03*
X91584000Y54394000D03*
%TD*%
D10*
%TO.C,C132*%
X33020000Y39611000D03*
X33020000Y41161000D03*
%TD*%
D12*
%TO.C,C49*%
X84836000Y37224000D03*
X84836000Y35674000D03*
%TD*%
%TO.C,C107*%
X12624000Y30629000D03*
X12624000Y29079000D03*
%TD*%
D13*
%TO.C,R103*%
X4825000Y40000000D03*
X3175000Y40000000D03*
%TD*%
D17*
%TO.C,C80*%
X88396000Y46482000D03*
X89946000Y46482000D03*
%TD*%
D12*
%TO.C,C60*%
X98603000Y51076000D03*
X98603000Y49526000D03*
%TD*%
D11*
%TO.C,R109*%
X36259000Y47752000D03*
X37909000Y47752000D03*
%TD*%
D16*
%TO.C,R123*%
X29210000Y38417000D03*
X29210000Y36767000D03*
%TD*%
D15*
%TO.C,C90*%
X72039000Y57582000D03*
X70489000Y57582000D03*
%TD*%
D20*
%TO.C,CMC1*%
X9773000Y30386000D03*
X9773000Y29236000D03*
X6973000Y29236000D03*
X6973000Y30386000D03*
%TD*%
D10*
%TO.C,C12*%
X15748000Y1511000D03*
X15748000Y3061000D03*
%TD*%
%TO.C,C30*%
X64186000Y33651000D03*
X64186000Y35201000D03*
%TD*%
%TO.C,C24*%
X84836000Y22847000D03*
X84836000Y24397000D03*
%TD*%
D21*
%TO.C,U28*%
X35800000Y42520000D03*
X38100000Y42520000D03*
D22*
X38100000Y36220000D03*
D21*
X40400000Y42520000D03*
%TD*%
D17*
%TO.C,C115*%
X36309000Y50292000D03*
X37859000Y50292000D03*
%TD*%
D16*
%TO.C,R16*%
X81966000Y3501000D03*
X81966000Y1851000D03*
%TD*%
%TO.C,R89*%
X75108000Y14931000D03*
X75108000Y13281000D03*
%TD*%
D23*
%TO.C,U15*%
X96997000Y49031000D03*
X96997000Y47761000D03*
X96997000Y46491000D03*
X96997000Y45221000D03*
X91573000Y45221000D03*
X91573000Y46491000D03*
X91573000Y47761000D03*
X91573000Y49031000D03*
%TD*%
D17*
%TO.C,C26*%
X85585000Y18288000D03*
X87135000Y18288000D03*
%TD*%
D13*
%TO.C,R104*%
X4825000Y38000000D03*
X3175000Y38000000D03*
%TD*%
D16*
%TO.C,R15*%
X66548000Y2857000D03*
X66548000Y1207000D03*
%TD*%
D12*
%TO.C,C87*%
X48531000Y56325000D03*
X48531000Y54775000D03*
%TD*%
D15*
%TO.C,C105*%
X110503000Y4572000D03*
X108953000Y4572000D03*
%TD*%
D11*
%TO.C,R49*%
X73614000Y43739000D03*
X75264000Y43739000D03*
%TD*%
%TO.C,R47*%
X98540000Y43443000D03*
X100190000Y43443000D03*
%TD*%
D14*
%TO.C,R83*%
X83820000Y57087000D03*
X83820000Y58737000D03*
%TD*%
D10*
%TO.C,C73*%
X52595000Y46901000D03*
X52595000Y48451000D03*
%TD*%
D12*
%TO.C,C68*%
X96952000Y43964000D03*
X96952000Y42414000D03*
%TD*%
D10*
%TO.C,C43*%
X87884000Y35674000D03*
X87884000Y37224000D03*
%TD*%
D24*
%TO.C,TVS2*%
X91075000Y6184000D03*
X91575000Y6184000D03*
D25*
X92075000Y6134000D03*
D24*
X92575000Y6184000D03*
X93075000Y6184000D03*
X93075000Y5309000D03*
X92575000Y5309000D03*
D25*
X92075000Y5359000D03*
D24*
X91575000Y5309000D03*
X91075000Y5309000D03*
%TD*%
D13*
%TO.C,R119*%
X46215000Y34934000D03*
X44565000Y34934000D03*
%TD*%
D14*
%TO.C,R80*%
X62501000Y46851000D03*
X62501000Y48501000D03*
%TD*%
D23*
%TO.C,U16*%
X71944000Y49454000D03*
X71944000Y48184000D03*
X71944000Y46914000D03*
X71944000Y45644000D03*
X66520000Y45644000D03*
X66520000Y46914000D03*
X66520000Y48184000D03*
X66520000Y49454000D03*
%TD*%
D11*
%TO.C,R50*%
X95331000Y55296000D03*
X96981000Y55296000D03*
%TD*%
D17*
%TO.C,C91*%
X52709000Y57836000D03*
X54259000Y57836000D03*
%TD*%
D13*
%TO.C,R60*%
X57230000Y52502000D03*
X55580000Y52502000D03*
%TD*%
%TO.C,R63*%
X96981000Y58852000D03*
X95331000Y58852000D03*
%TD*%
D12*
%TO.C,C62*%
X73677000Y49848000D03*
X73677000Y48298000D03*
%TD*%
D16*
%TO.C,R24*%
X65566000Y38265000D03*
X65566000Y36615000D03*
%TD*%
D14*
%TO.C,R61*%
X50055000Y46851000D03*
X50055000Y48501000D03*
%TD*%
D12*
%TO.C,C79*%
X67564000Y52388000D03*
X67564000Y50838000D03*
%TD*%
D17*
%TO.C,C4*%
X84099716Y28448000D03*
X85649716Y28448000D03*
%TD*%
D12*
%TO.C,C85*%
X81170000Y58687000D03*
X81170000Y57137000D03*
%TD*%
%TO.C,C70*%
X100330000Y57671000D03*
X100330000Y56121000D03*
%TD*%
D26*
%TO.C,D3*%
X69487000Y51740000D03*
X72787000Y51740000D03*
%TD*%
D13*
%TO.C,R91*%
X5143000Y13970000D03*
X3493000Y13970000D03*
%TD*%
D11*
%TO.C,R87*%
X68415096Y18034000D03*
X70065096Y18034000D03*
%TD*%
D15*
%TO.C,C16*%
X88620286Y25400000D03*
X87070286Y25400000D03*
%TD*%
%TO.C,C10*%
X85649716Y27178000D03*
X84099716Y27178000D03*
%TD*%
D17*
%TO.C,C37*%
X74790000Y34417000D03*
X76340000Y34417000D03*
%TD*%
D13*
%TO.C,R9*%
X88670286Y24130000D03*
X87020286Y24130000D03*
%TD*%
D12*
%TO.C,C58*%
X84506000Y43837000D03*
X84506000Y42287000D03*
%TD*%
D16*
%TO.C,R88*%
X69977000Y13271000D03*
X69977000Y11621000D03*
%TD*%
D14*
%TO.C,R3*%
X36576000Y1461000D03*
X36576000Y3111000D03*
%TD*%
D27*
%TO.C,U21*%
X67538000Y14236000D03*
X67538000Y14736000D03*
X67538000Y15236000D03*
X67538000Y15736000D03*
X70638000Y15736000D03*
X70638000Y15236000D03*
X70638000Y14736000D03*
X70638000Y14236000D03*
%TD*%
D15*
%TO.C,C7*%
X85649716Y29718000D03*
X84099716Y29718000D03*
%TD*%
D13*
%TO.C,R110*%
X37909000Y49022000D03*
X36259000Y49022000D03*
%TD*%
D15*
%TO.C,C102*%
X102553000Y4572000D03*
X101003000Y4572000D03*
%TD*%
D17*
%TO.C,C15*%
X53327000Y3048000D03*
X54877000Y3048000D03*
%TD*%
D12*
%TO.C,C92*%
X65938096Y15761000D03*
X65938096Y14211000D03*
%TD*%
D13*
%TO.C,R81*%
X65104000Y45517000D03*
X63454000Y45517000D03*
%TD*%
D12*
%TO.C,C75*%
X84599000Y50229000D03*
X84599000Y48679000D03*
%TD*%
D15*
%TO.C,C38*%
X76340000Y32893000D03*
X74790000Y32893000D03*
%TD*%
D17*
%TO.C,C81*%
X90047000Y41961000D03*
X91597000Y41961000D03*
%TD*%
D28*
%TO.C,U20*%
X53898000Y53645000D03*
X53898000Y52375000D03*
X53898000Y51105000D03*
X53898000Y49835000D03*
X48498000Y49835000D03*
X48498000Y51105000D03*
X48498000Y52375000D03*
X48498000Y53645000D03*
%TD*%
D15*
%TO.C,C69*%
X71912000Y44120000D03*
X70362000Y44120000D03*
%TD*%
D17*
%TO.C,C13*%
X33515000Y3048000D03*
X35065000Y3048000D03*
%TD*%
D16*
%TO.C,R14*%
X64050000Y2857000D03*
X64050000Y1207000D03*
%TD*%
D18*
%TO.C,TVS3*%
X71552000Y13310000D03*
X71552000Y12870000D03*
%TD*%
D16*
%TO.C,R8*%
X57912000Y3111000D03*
X57912000Y1461000D03*
%TD*%
%TO.C,R65*%
X81551000Y50279000D03*
X81551000Y48629000D03*
%TD*%
D17*
%TO.C,C83*%
X66281000Y44120000D03*
X67831000Y44120000D03*
%TD*%
D14*
%TO.C,R51*%
X90060000Y54344000D03*
X90060000Y55994000D03*
%TD*%
D26*
%TO.C,D4*%
X61867000Y50597000D03*
X65167000Y50597000D03*
%TD*%
D17*
%TO.C,C66*%
X70489000Y54915000D03*
X72039000Y54915000D03*
%TD*%
D14*
%TO.C,R44*%
X75201000Y48248000D03*
X75201000Y49898000D03*
%TD*%
D16*
%TO.C,R72*%
X63771000Y48501000D03*
X63771000Y46851000D03*
%TD*%
D10*
%TO.C,C71*%
X83075000Y48679000D03*
X83075000Y50229000D03*
%TD*%
D13*
%TO.C,R112*%
X38925000Y33020000D03*
X37275000Y33020000D03*
%TD*%
%TO.C,R45*%
X75264000Y45263000D03*
X73614000Y45263000D03*
%TD*%
D17*
%TO.C,C116*%
X37325000Y31750000D03*
X38875000Y31750000D03*
%TD*%
D16*
%TO.C,R120*%
X31750000Y41211000D03*
X31750000Y39561000D03*
%TD*%
%TO.C,R122*%
X31750000Y38417000D03*
X31750000Y36767000D03*
%TD*%
D10*
%TO.C,C110*%
X13834000Y29079000D03*
X13834000Y30629000D03*
%TD*%
D15*
%TO.C,C86*%
X69245000Y59106000D03*
X67695000Y59106000D03*
%TD*%
D11*
%TO.C,R86*%
X68415096Y16764000D03*
X70065096Y16764000D03*
%TD*%
D28*
%TO.C,U17*%
X101965000Y54026000D03*
X101965000Y55296000D03*
X101965000Y56566000D03*
X101965000Y57836000D03*
X107365000Y57836000D03*
X107365000Y56566000D03*
X107365000Y55296000D03*
X107365000Y54026000D03*
%TD*%
D16*
%TO.C,R7*%
X47244000Y3111000D03*
X47244000Y1461000D03*
%TD*%
%TO.C,R13*%
X61468000Y2857000D03*
X61468000Y1207000D03*
%TD*%
D19*
%TO.C,D1*%
X96664000Y53771000D03*
X96664000Y50471000D03*
%TD*%
D13*
%TO.C,R79*%
X89996000Y44967000D03*
X88346000Y44967000D03*
%TD*%
D11*
%TO.C,R55*%
X95331000Y57582000D03*
X96981000Y57582000D03*
%TD*%
D17*
%TO.C,C1*%
X84099716Y25908000D03*
X85649716Y25908000D03*
%TD*%
D14*
%TO.C,R67*%
X58437000Y55233000D03*
X58437000Y56883000D03*
%TD*%
D13*
%TO.C,R43*%
X100156000Y46533000D03*
X98506000Y46533000D03*
%TD*%
D11*
%TO.C,R54*%
X98633000Y54915000D03*
X100283000Y54915000D03*
%TD*%
D14*
%TO.C,R5*%
X56388000Y1461000D03*
X56388000Y3111000D03*
%TD*%
D16*
%TO.C,R59*%
X59707000Y56883000D03*
X59707000Y55233000D03*
%TD*%
%TO.C,R121*%
X33020000Y38417000D03*
X33020000Y36767000D03*
%TD*%
D11*
%TO.C,R111*%
X37275000Y34290000D03*
X38925000Y34290000D03*
%TD*%
D12*
%TO.C,C21*%
X81534000Y17285000D03*
X81534000Y15735000D03*
%TD*%
D14*
%TO.C,R4*%
X45720000Y1393000D03*
X45720000Y3043000D03*
%TD*%
D11*
%TO.C,R102*%
X105093000Y7366000D03*
X106743000Y7366000D03*
%TD*%
D13*
%TO.C,R70*%
X89996000Y47930000D03*
X88346000Y47930000D03*
%TD*%
%TO.C,R58*%
X69295000Y53645000D03*
X67645000Y53645000D03*
%TD*%
D10*
%TO.C,C140*%
X30480000Y36817000D03*
X30480000Y38367000D03*
%TD*%
D16*
%TO.C,R62*%
X103776000Y52692000D03*
X103776000Y51042000D03*
%TD*%
D12*
%TO.C,C59*%
X84506000Y40789000D03*
X84506000Y39239000D03*
%TD*%
D10*
%TO.C,C23*%
X79934000Y17395000D03*
X79934000Y18945000D03*
%TD*%
D23*
%TO.C,U14*%
X77806000Y33147000D03*
X77806000Y34417000D03*
X77806000Y35687000D03*
X77806000Y36957000D03*
X83230000Y36957000D03*
X83230000Y35687000D03*
X83230000Y34417000D03*
X83230000Y33147000D03*
%TD*%
D28*
%TO.C,U18*%
X85013000Y55423000D03*
X85013000Y54153000D03*
X85013000Y52883000D03*
X85013000Y51613000D03*
X79613000Y51613000D03*
X79613000Y52883000D03*
X79613000Y54153000D03*
X79613000Y55423000D03*
%TD*%
D29*
%TO.C,U19*%
X66311000Y53358000D03*
X65041000Y53358000D03*
X63771000Y53358000D03*
X62501000Y53358000D03*
X62501000Y58758000D03*
X63771000Y58758000D03*
X65041000Y58758000D03*
X66311000Y58758000D03*
%TD*%
D15*
%TO.C,C20*%
X81547000Y21844000D03*
X79997000Y21844000D03*
%TD*%
D12*
%TO.C,C89*%
X85090000Y58687000D03*
X85090000Y57137000D03*
%TD*%
D16*
%TO.C,R23*%
X67344000Y38265000D03*
X67344000Y36615000D03*
%TD*%
%TO.C,R69*%
X51325000Y48501000D03*
X51325000Y46851000D03*
%TD*%
D15*
%TO.C,C28*%
X79693000Y5216000D03*
X78143000Y5216000D03*
%TD*%
D13*
%TO.C,R52*%
X72089000Y53391000D03*
X70439000Y53391000D03*
%TD*%
D14*
%TO.C,R1*%
X14478000Y1461000D03*
X14478000Y3111000D03*
%TD*%
%TO.C,R64*%
X87012000Y54344000D03*
X87012000Y55994000D03*
%TD*%
D10*
%TO.C,C25*%
X81280000Y22847000D03*
X81280000Y24397000D03*
%TD*%
D11*
%TO.C,R90*%
X2477000Y18796000D03*
X4127000Y18796000D03*
%TD*%
D13*
%TO.C,R71*%
X91647000Y43485000D03*
X89997000Y43485000D03*
%TD*%
D16*
%TO.C,R105*%
X25324000Y29663000D03*
X25324000Y28013000D03*
%TD*%
D13*
%TO.C,R92*%
X5143000Y10922000D03*
X3493000Y10922000D03*
%TD*%
D14*
%TO.C,R75*%
X82550000Y57087000D03*
X82550000Y58737000D03*
%TD*%
D11*
%TO.C,R82*%
X105364000Y48057000D03*
X107014000Y48057000D03*
%TD*%
D30*
%TO.C,U25*%
X104518000Y4584000D03*
X104518000Y5084000D03*
X104518000Y5584000D03*
X104518000Y6084000D03*
X107318000Y6084000D03*
X107318000Y5584000D03*
X107318000Y5084000D03*
X107318000Y4584000D03*
%TD*%
D15*
%TO.C,C88*%
X106964000Y49581000D03*
X105414000Y49581000D03*
%TD*%
D31*
%TO.C,TVS10*%
X103522000Y7756000D03*
X103082000Y7756000D03*
%TD*%
D15*
%TO.C,C63*%
X75214000Y46787000D03*
X73664000Y46787000D03*
%TD*%
%TO.C,C113*%
X28385000Y28076000D03*
X26835000Y28076000D03*
%TD*%
D14*
%TO.C,R53*%
X58945000Y49645000D03*
X58945000Y51295000D03*
%TD*%
D13*
%TO.C,R84*%
X69295000Y57582000D03*
X67645000Y57582000D03*
%TD*%
D16*
%TO.C,R56*%
X88536000Y55994000D03*
X88536000Y54344000D03*
%TD*%
D12*
%TO.C,C77*%
X53865000Y48451000D03*
X53865000Y46901000D03*
%TD*%
D11*
%TO.C,R25*%
X74613000Y35941000D03*
X76263000Y35941000D03*
%TD*%
D14*
%TO.C,R2*%
X27432000Y1461000D03*
X27432000Y3111000D03*
%TD*%
D16*
%TO.C,R6*%
X38100000Y3111000D03*
X38100000Y1461000D03*
%TD*%
D13*
%TO.C,R42*%
X100156000Y48057000D03*
X98506000Y48057000D03*
%TD*%
D12*
%TO.C,C19*%
X84760000Y17285000D03*
X84760000Y15735000D03*
%TD*%
D11*
%TO.C,R115*%
X36259000Y46482000D03*
X37909000Y46482000D03*
%TD*%
M02*
